<svg xmlns="http://www.w3.org/2000/svg" viewBox="760 250 450 450" preserveAspectRatio="xMidYMid meet" fill="#fff">
  <path d="M1024.6,545.5l-68.6,13.8-100.9,25c25.5-24.2,46.6-55,52-90.4l14,28.5c1.5,5.6,4,10.9,5.5,16.5,1.2,4.7,3.3,20.5,5,23,1.1,1.6,4.8-2.1,6-3,38.4-30,78.8-81.6,98.6-126.2,2.9-6.5,7.7-17,9.4-23.6.5-2,.9-2.6-1-4-27.9,48.1-66.7,89.2-109.9,123.8-5.6-10.3-9.6-21.4-15.3-31.6-9.6-17.1-22.4-31.9-36.6-45.3l-14.5-11c29.1,5.5,54.8,22.4,74.9,43.5,1.6.7,16.5-12.7,19-15,36.2-32.7,68.4-72.3,89.1-116.7l10.8-29.6,4,37.5c2.6,64.2-9.2,129-41.2,185Z"/>
  <path d="M1108.8,542.8c-12.7,21.6-26.8,42.8-44.4,60.7-35.2-14.5-71.6-13.5-108.6-7.4-50.9,8.5-104.1,32.2-153.7,4.7-.3-1.7,2.4-1.1,3.5-1,59.8,5,114.2-17,171.1-31.7,43.3-11.2,87.4-21.2,132.1-25.2Z"/>
  <path d="M1052.4,611.8c-11.2-.7-21.6-2.6-33-2.1-69.5,3.1-128.5,52.1-200.3,31.5-14.3-4.1-27.2-11.2-40-18.5-.2-1.9,2-.8,3-.5,14.1,3.2,25.6,6.7,40.4,7.5,79.6,4.2,154.2-47.5,233.2-19,.3,1.7-2.4,1.1-3.5,1Z"/>
  <path d="M1115.8,643.7c-31.2-12.7-64.3-12.2-96.9-5.5-32.3,6.6-63.2,20.3-96.4,23.5-20.7,2-41.5-.2-61.4-6-.2-1.7,2.3-.9,3.5-1,50.1-2,74.2-15.3,120-26.9,44.4-11.2,92.6-11.1,131.3,15.9Z"/>
</svg>
